<?xml version='1.0' encoding='UTF-8' standalone='no'?>
<!-- Created with Fritzing (http://www.fritzing.org/) -->
<svg xmlns="http://www.w3.org/2000/svg"  viewBox="0 0 113.924 86.4" x="0in" height="1.2in" y="0in" baseProfile="tiny" version="1.2" width="1.58228in">
    <desc >
        <referenceFile >RFID_USB_Reader-v14_pcb.svg</referenceFile>
    </desc>
    <desc >Fritzing footprint generated by brd2svg</desc>
    <g  gorn="0.2" stroke-width="0" id="silkscreen">
        <path  stroke-width="0.576" fill="none" stroke="white" d="M2.60065,86.112L113.636,86.112L113.636,0.288L2.60065,0.288L2.60065,86.112M90.6566,54.2551a0.845856,0.845856,0,1,1,1.69172,0,0.845856,0.845856,0,1,1,-1.69172,0zM73.2233,36.822a0.845856,0.845856,0,1,1,1.69172,0,0.845856,0.845856,0,1,1,-1.69172,0zM5.13241,7.2a4.392,4.392,0,1,1,8.784,0,4.392,4.392,0,1,1,-8.784,0zM5.13241,79.2a4.392,4.392,0,1,1,8.784,0,4.392,4.392,0,1,1,-8.784,0zM102.332,7.2a4.392,4.392,0,1,1,8.784,0,4.392,4.392,0,1,1,-8.784,0zM102.332,79.2a4.392,4.392,0,1,1,8.784,0,4.392,4.392,0,1,1,-8.784,0zM15.7368,36.9638a0.987588,0.987588,0,1,1,1.97518,0,0.987588,0.987588,0,1,1,-1.97518,0zM15.7368,49.4362a0.987588,0.987588,0,1,1,1.97518,0,0.987588,0.987588,0,1,1,-1.97518,0z"/>
        <g  stroke-width="0">
            <title >element:JP1</title>
            <g  stroke-width="0">
                <title >package:1X08</title>
                <line  y1="27" y2="23.4" x1="106.724" x2="106.724" stroke-linecap="round" stroke-width="0.576" stroke="white"/>
                <line  y1="23.4" y2="21.6" x1="106.724" x2="108.524" stroke-linecap="round" stroke-width="0.576" stroke="white"/>
                <line  y1="21.6" y2="23.4" x1="112.124" x2="113.924" stroke-linecap="round" stroke-width="0.576" stroke="white"/>
                <line  y1="36" y2="34.2" x1="108.524" x2="106.724" stroke-linecap="round" stroke-width="0.576" stroke="white"/>
                <line  y1="34.2" y2="30.6" x1="106.724" x2="106.724" stroke-linecap="round" stroke-width="0.576" stroke="white"/>
                <line  y1="30.6" y2="28.8" x1="106.724" x2="108.524" stroke-linecap="round" stroke-width="0.576" stroke="white"/>
                <line  y1="28.8" y2="30.6" x1="112.124" x2="113.924" stroke-linecap="round" stroke-width="0.576" stroke="white"/>
                <line  y1="30.6" y2="34.2" x1="113.924" x2="113.924" stroke-linecap="round" stroke-width="0.576" stroke="white"/>
                <line  y1="34.2" y2="36" x1="113.924" x2="112.124" stroke-linecap="round" stroke-width="0.576" stroke="white"/>
                <line  y1="27" y2="28.8" x1="106.724" x2="108.524" stroke-linecap="round" stroke-width="0.576" stroke="white"/>
                <line  y1="28.8" y2="27" x1="112.124" x2="113.924" stroke-linecap="round" stroke-width="0.576" stroke="white"/>
                <line  y1="23.4" y2="27" x1="113.924" x2="113.924" stroke-linecap="round" stroke-width="0.576" stroke="white"/>
                <line  y1="48.6" y2="45" x1="106.724" x2="106.724" stroke-linecap="round" stroke-width="0.576" stroke="white"/>
                <line  y1="45" y2="43.2" x1="106.724" x2="108.524" stroke-linecap="round" stroke-width="0.576" stroke="white"/>
                <line  y1="43.2" y2="45" x1="112.124" x2="113.924" stroke-linecap="round" stroke-width="0.576" stroke="white"/>
                <line  y1="43.2" y2="41.4" x1="108.524" x2="106.724" stroke-linecap="round" stroke-width="0.576" stroke="white"/>
                <line  y1="41.4" y2="37.8" x1="106.724" x2="106.724" stroke-linecap="round" stroke-width="0.576" stroke="white"/>
                <line  y1="37.8" y2="36" x1="106.724" x2="108.524" stroke-linecap="round" stroke-width="0.576" stroke="white"/>
                <line  y1="36" y2="37.8" x1="112.124" x2="113.924" stroke-linecap="round" stroke-width="0.576" stroke="white"/>
                <line  y1="37.8" y2="41.4" x1="113.924" x2="113.924" stroke-linecap="round" stroke-width="0.576" stroke="white"/>
                <line  y1="41.4" y2="43.2" x1="113.924" x2="112.124" stroke-linecap="round" stroke-width="0.576" stroke="white"/>
                <line  y1="57.6" y2="55.8" x1="108.524" x2="106.724" stroke-linecap="round" stroke-width="0.576" stroke="white"/>
                <line  y1="55.8" y2="52.2" x1="106.724" x2="106.724" stroke-linecap="round" stroke-width="0.576" stroke="white"/>
                <line  y1="52.2" y2="50.4" x1="106.724" x2="108.524" stroke-linecap="round" stroke-width="0.576" stroke="white"/>
                <line  y1="50.4" y2="52.2" x1="112.124" x2="113.924" stroke-linecap="round" stroke-width="0.576" stroke="white"/>
                <line  y1="52.2" y2="55.8" x1="113.924" x2="113.924" stroke-linecap="round" stroke-width="0.576" stroke="white"/>
                <line  y1="55.8" y2="57.6" x1="113.924" x2="112.124" stroke-linecap="round" stroke-width="0.576" stroke="white"/>
                <line  y1="48.6" y2="50.4" x1="106.724" x2="108.524" stroke-linecap="round" stroke-width="0.576" stroke="white"/>
                <line  y1="50.4" y2="48.6" x1="112.124" x2="113.924" stroke-linecap="round" stroke-width="0.576" stroke="white"/>
                <line  y1="45" y2="48.6" x1="113.924" x2="113.924" stroke-linecap="round" stroke-width="0.576" stroke="white"/>
                <line  y1="70.2" y2="66.6" x1="106.724" x2="106.724" stroke-linecap="round" stroke-width="0.576" stroke="white"/>
                <line  y1="66.6" y2="64.8" x1="106.724" x2="108.524" stroke-linecap="round" stroke-width="0.576" stroke="white"/>
                <line  y1="64.8" y2="66.6" x1="112.124" x2="113.924" stroke-linecap="round" stroke-width="0.576" stroke="white"/>
                <line  y1="64.8" y2="63" x1="108.524" x2="106.724" stroke-linecap="round" stroke-width="0.576" stroke="white"/>
                <line  y1="63" y2="59.4" x1="106.724" x2="106.724" stroke-linecap="round" stroke-width="0.576" stroke="white"/>
                <line  y1="59.4" y2="57.6" x1="106.724" x2="108.524" stroke-linecap="round" stroke-width="0.576" stroke="white"/>
                <line  y1="57.6" y2="59.4" x1="112.124" x2="113.924" stroke-linecap="round" stroke-width="0.576" stroke="white"/>
                <line  y1="59.4" y2="63" x1="113.924" x2="113.924" stroke-linecap="round" stroke-width="0.576" stroke="white"/>
                <line  y1="63" y2="64.8" x1="113.924" x2="112.124" stroke-linecap="round" stroke-width="0.576" stroke="white"/>
                <line  y1="72" y2="72" x1="108.524" x2="112.124" stroke-linecap="round" stroke-width="0.576" stroke="white"/>
                <line  y1="70.2" y2="72" x1="106.724" x2="108.524" stroke-linecap="round" stroke-width="0.576" stroke="white"/>
                <line  y1="72" y2="70.2" x1="112.124" x2="113.924" stroke-linecap="round" stroke-width="0.576" stroke="white"/>
                <line  y1="66.6" y2="70.2" x1="113.924" x2="113.924" stroke-linecap="round" stroke-width="0.576" stroke="white"/>
                <line  y1="19.8" y2="16.2" x1="106.724" x2="106.724" stroke-linecap="round" stroke-width="0.576" stroke="white"/>
                <line  y1="16.2" y2="14.4" x1="106.724" x2="108.524" stroke-linecap="round" stroke-width="0.576" stroke="white"/>
                <line  y1="14.4" y2="14.4" x1="108.524" x2="112.124" stroke-linecap="round" stroke-width="0.576" stroke="white"/>
                <line  y1="14.4" y2="16.2" x1="112.124" x2="113.924" stroke-linecap="round" stroke-width="0.576" stroke="white"/>
                <line  y1="19.8" y2="21.6" x1="106.724" x2="108.524" stroke-linecap="round" stroke-width="0.576" stroke="white"/>
                <line  y1="21.6" y2="19.8" x1="112.124" x2="113.924" stroke-linecap="round" stroke-width="0.576" stroke="white"/>
                <line  y1="16.2" y2="19.8" x1="113.924" x2="113.924" stroke-linecap="round" stroke-width="0.576" stroke="white"/>
            </g>
        </g>
        <g  stroke-width="0">
            <title >element:SG1</title>
            <g  stroke-width="0">
                <title >package:BUZZER-CCV</title>
                <path  stroke-width="0.576" fill="none" stroke="white" d="M72.8842,39.6A12.6771,12.6771,0,0,0,80.5889,55.1055"/>
                <path  stroke-width="0.576" fill="none" stroke="white" d="M80.4442,31.32A12.7993,12.7993,0,0,0,75.7642,34.56"/>
                <path  stroke-width="0.576" fill="none" stroke="white" d="M95.6124,35.8299A13.7404,13.7404,0,0,0,89.6602,31.2945"/>
                <path  stroke-width="0.576" fill="none" stroke="white" d="M93.7642,52.56A11.2519,11.2519,0,0,0,95.3294,50.5701"/>
                <line  y1="50.5701" y2="35.8299" x1="102.132" x2="102.132" stroke-linecap="round" stroke-width="0.576" stroke="white"/>
                <line  y1="35.8299" y2="35.8299" x1="102.132" x2="95.6124" stroke-linecap="round" stroke-width="0.576" stroke="white"/>
                <line  y1="50.5701" y2="50.5701" x1="102.132" x2="95.3294" stroke-linecap="round" stroke-width="0.576" stroke="white"/>
            </g>
        </g>
        <g  stroke-width="0">
            <title >element:U$1</title>
            <g  stroke-width="0">
                <title >package:SFE-NEW-WEBLOGO</title>
            </g>
        </g>
        <g  stroke-width="0">
            <title >element:U1</title>
            <g  stroke-width="0">
                <title >package:SSOP28DB</title>
                <line  y1="51.4913" y2="51.4913" x1="60.2646" x2="30.7842" stroke-linecap="round" stroke-width="0.432" stroke="white"/>
                <line  y1="51.4913" y2="34.9087" x1="30.7842" x2="30.7842" stroke-linecap="round" stroke-width="0.432" stroke="white"/>
                <line  y1="34.9087" y2="34.9087" x1="30.7842" x2="60.2646" stroke-linecap="round" stroke-width="0.432" stroke="white"/>
                <line  y1="34.9087" y2="51.4913" x1="60.2646" x2="60.2646" stroke-linecap="round" stroke-width="0.432" stroke="white"/>
                <circle  cx="57.5008" cy="37.6724" stroke-width="0.432" fill="none" r="1.3028" stroke="white"/>
            </g>
        </g>
        <g  stroke-width="0">
            <title >element:U3</title>
            <g  stroke-width="0">
                <title >package:ID-12</title>
            </g>
        </g>
        <g  stroke-width="0">
            <title >element:X1</title>
            <g  stroke-width="0">
                <title >package:USB-MINIB</title>
                <line  y1="32.4284" y2="32.4284" x1="13.0393" x2="18.9922" stroke-linecap="round" stroke-width="0.576" stroke="white"/>
                <line  y1="34.4126" y2="36.9638" x1="26.0788" x2="26.0788" stroke-linecap="round" stroke-width="0.576" stroke="white"/>
                <line  y1="49.4362" y2="51.9874" x1="26.0788" x2="26.0788" stroke-linecap="round" stroke-width="0.576" stroke="white"/>
                <line  y1="53.9716" y2="53.9716" x1="18.9922" x2="13.0393" stroke-linecap="round" stroke-width="0.576" stroke="white"/>
            </g>
        </g>
        <line  y1="53.9716" y2="53.9716" x1="0.288" x2="2.32441" stroke-width="0.576" fill="none" fill-opacity="1" stroke="white"/>
        <line  y1="32.4284" y2="32.4284" x1="0.288" x2="2.32441" stroke-width="0.576" fill="none" fill-opacity="1" stroke="white"/>
        <line  y1="53.9716" y2="32.4284" x1="0.288" x2="0.288" stroke-width="0.576" fill="none" fill-opacity="1" stroke="white"/>
    </g>
    <g  gorn="0.3" stroke-width="0" id="copper1">
        <g  gorn="0.3.0" stroke-width="0" id="copper0">
            <circle  cx="110.324" cy="68.4" gorn="0.3.0.0" stroke-width="0.864" connectorname="GNDT" fill="none" r="1.872" id="connector8pad" stroke="#F7BD13"/>
            <rect  x="108.452" height="3.744" y="66.528" stroke-width="0.864" width="3.744" fill="none" stroke="#F7BD13"/>
            <circle  cx="110.324" cy="61.2" gorn="0.3.0.2" stroke-width="0.864" connectorname="CP" fill="none" r="1.872" id="connector9pad" stroke="#F7BD13"/>
            <circle  cx="110.324" cy="54" gorn="0.3.0.3" stroke-width="0.864" connectorname="ANT2" fill="none" r="1.872" id="connector10pad" stroke="#F7BD13"/>
            <circle  cx="110.324" cy="46.8" gorn="0.3.0.4" stroke-width="0.864" connectorname="ANT1" fill="none" r="1.872" id="connector11pad" stroke="#F7BD13"/>
            <circle  cx="110.324" cy="39.6" gorn="0.3.0.5" stroke-width="0.864" connectorname="TX-O-RS232" fill="none" r="1.872" id="connector12pad" stroke="#F7BD13"/>
            <circle  cx="110.324" cy="32.4" gorn="0.3.0.6" stroke-width="0.864" connectorname="TX-O" fill="none" r="1.872" id="connector13pad" stroke="#F7BD13"/>
            <circle  cx="110.324" cy="25.2" gorn="0.3.0.7" stroke-width="0.864" connectorname="GND" fill="none" r="1.872" id="connector14pad" stroke="#F7BD13"/>
            <circle  cx="110.324" cy="18" gorn="0.3.0.8" stroke-width="0.864" connectorname="VCC" fill="none" r="1.872" id="connector15pad" stroke="#F7BD13"/>
        </g>
    </g>
</svg>
